<svg xmlns="http://www.w3.org/2000/svg" width="1200" height="760" viewBox="0 0 1200 760">
<rect width="100%" height="100%" fill="#f7f9fc"/>
<text x="40" y="48" font-size="28" font-family="Arial" fill="#102a43">World Model Input Conflict Dashboard</text>
<text x="40" y="76" font-size="14" font-family="Arial" fill="#52606d">Comparing coarse signatures against actual model-visible input hashes</text>
<rect x="40" y="110" width="250" height="110" rx="14" fill="#ffffff" stroke="#d9e2ec"/>
<text x="58" y="146" font-size="18" font-family="Arial" fill="#334e68">reward coarse</text>
<text x="58" y="190" font-size="34" font-family="Arial" fill="#d64545">0.00%</text>
<rect x="320" y="110" width="250" height="110" rx="14" fill="#ffffff" stroke="#d9e2ec"/>
<text x="338" y="146" font-size="18" font-family="Arial" fill="#334e68">reward model-input</text>
<text x="338" y="190" font-size="34" font-family="Arial" fill="#d64545">0.00%</text>
<rect x="600" y="110" width="250" height="110" rx="14" fill="#ffffff" stroke="#d9e2ec"/>
<text x="618" y="146" font-size="18" font-family="Arial" fill="#334e68">value coarse</text>
<text x="618" y="190" font-size="34" font-family="Arial" fill="#d64545">0.00%</text>
<rect x="880" y="110" width="250" height="110" rx="14" fill="#ffffff" stroke="#d9e2ec"/>
<text x="898" y="146" font-size="18" font-family="Arial" fill="#334e68">value model-input</text>
<text x="898" y="190" font-size="34" font-family="Arial" fill="#d64545">0.00%</text>
<rect x="40" y="290" width="540" height="390" rx="14" fill="#ffffff" stroke="#d9e2ec"/>
<text x="58" y="324" font-size="22" font-family="Arial" fill="#486581">coarse_signature</text>
<text x="58" y="362" font-size="16" font-family="Arial" fill="#334e68">reward: conflicts=0/6 (0.00%)</text>
<text x="58" y="392" font-size="16" font-family="Arial" fill="#334e68">value: conflicts=0/6 (0.00%)</text>
<text x="58" y="434" font-size="16" font-family="Arial" fill="#334e68">Top reward examples:</text>
<rect x="620" y="290" width="540" height="390" rx="14" fill="#ffffff" stroke="#d9e2ec"/>
<text x="638" y="324" font-size="22" font-family="Arial" fill="#2f855a">model_input_hash</text>
<text x="638" y="362" font-size="16" font-family="Arial" fill="#334e68">reward: conflicts=0/6 (0.00%)</text>
<text x="638" y="392" font-size="16" font-family="Arial" fill="#334e68">value: conflicts=0/6 (0.00%)</text>
<text x="638" y="434" font-size="16" font-family="Arial" fill="#334e68">Top reward examples:</text>
</svg>